<svg xmlns="http://www.w3.org/2000/svg" width="170" height="170" viewBox="0 0 170 170" role="img" aria-labelledby="title desc" shape-rendering="crispEdges">
  <title id="title">v borderless ANSI art</title>
  <desc id="desc">Cell-accurate SVG rendering of terminal ANSI art generated by cmd/generate-assets.</desc>
  <rect width="100%" height="100%" fill="#090e13"/>
  <g transform="translate(12 32)">
    <rect x="8" y="8" width="10" height="18" fill="#938aa9"/>
    <rect x="18" y="8" width="10" height="18" fill="#958aa5"/>
    <rect x="28" y="8" width="10" height="18" fill="#988ba1"/>
    <rect x="38" y="8" width="10" height="18" fill="#9b8c9d"/>
    <rect x="88" y="8" width="10" height="18" fill="#aa8f8a"/>
    <rect x="98" y="8" width="10" height="18" fill="#ad9086"/>
    <rect x="108" y="8" width="10" height="18" fill="#b09082"/>
    <rect x="118" y="8" width="10" height="18" fill="#b3917e"/>
    <rect x="8" y="26" width="10" height="18" fill="#938aa9"/>
    <rect x="18" y="26" width="10" height="18" fill="#958aa5"/>
    <rect x="28" y="26" width="10" height="18" fill="#988ba1"/>
    <rect x="38" y="26" width="10" height="18" fill="#9b8c9d"/>
    <rect x="48" y="26" width="10" height="18" fill="#9e8c99" opacity="0.42"/>
    <rect x="88" y="26" width="10" height="18" fill="#aa8f8a"/>
    <rect x="98" y="26" width="10" height="18" fill="#ad9086"/>
    <rect x="108" y="26" width="10" height="18" fill="#b09082"/>
    <rect x="118" y="26" width="10" height="18" fill="#b3917e"/>
    <rect x="128" y="26" width="10" height="18" fill="#b6927b" opacity="0.42"/>
    <rect x="8" y="44" width="10" height="18" fill="#938aa9"/>
    <rect x="18" y="44" width="10" height="18" fill="#958aa5"/>
    <rect x="28" y="44" width="10" height="18" fill="#988ba1"/>
    <rect x="38" y="44" width="10" height="18" fill="#9b8c9d"/>
    <rect x="48" y="44" width="10" height="18" fill="#9e8c99" opacity="0.42"/>
    <rect x="88" y="44" width="10" height="18" fill="#aa8f8a"/>
    <rect x="98" y="44" width="10" height="18" fill="#ad9086"/>
    <rect x="108" y="44" width="10" height="18" fill="#b09082"/>
    <rect x="118" y="44" width="10" height="18" fill="#b3917e"/>
    <rect x="128" y="44" width="10" height="18" fill="#b6927b" opacity="0.42"/>
    <rect x="18" y="62" width="10" height="18" fill="#958aa5" opacity="0.42"/>
    <rect x="28" y="62" width="10" height="18" fill="#988ba1"/>
    <rect x="38" y="62" width="10" height="18" fill="#9b8c9d"/>
    <rect x="48" y="62" width="10" height="18" fill="#9e8c99"/>
    <rect x="58" y="62" width="10" height="18" fill="#a18d95"/>
    <rect x="68" y="62" width="10" height="18" fill="#a48e92"/>
    <rect x="78" y="62" width="10" height="18" fill="#a78e8e"/>
    <rect x="88" y="62" width="10" height="18" fill="#aa8f8a"/>
    <rect x="98" y="62" width="10" height="18" fill="#ad9086"/>
    <rect x="108" y="62" width="10" height="18" fill="#b09082" opacity="0.42"/>
    <rect x="118" y="62" width="10" height="18" fill="#b3917e" opacity="0.42"/>
    <rect x="128" y="62" width="10" height="18" fill="#b6927b" opacity="0.42"/>
    <rect x="38" y="80" width="10" height="18" fill="#9b8c9d" opacity="0.42"/>
    <rect x="48" y="80" width="10" height="18" fill="#9e8c99"/>
    <rect x="58" y="80" width="10" height="18" fill="#a18d95"/>
    <rect x="68" y="80" width="10" height="18" fill="#a48e92"/>
    <rect x="78" y="80" width="10" height="18" fill="#a78e8e"/>
    <rect x="88" y="80" width="10" height="18" fill="#aa8f8a" opacity="0.42"/>
    <rect x="98" y="80" width="10" height="18" fill="#ad9086" opacity="0.42"/>
    <rect x="108" y="80" width="10" height="18" fill="#b09082" opacity="0.42"/>
    <rect x="58" y="98" width="10" height="18" fill="#a18d95" opacity="0.42"/>
    <rect x="68" y="98" width="10" height="18" fill="#a48e92" opacity="0.42"/>
    <rect x="78" y="98" width="10" height="18" fill="#a78e8e" opacity="0.42"/>
    <rect x="88" y="98" width="10" height="18" fill="#aa8f8a" opacity="0.42"/>
  </g>
</svg>
