<svg xmlns="http://www.w3.org/2000/svg" width="170" height="148" viewBox="0 0 170 148" role="img" aria-labelledby="title desc" shape-rendering="crispEdges">
  <title id="title">v ANSI art</title>
  <desc id="desc">Cell-accurate SVG rendering of terminal ANSI art generated by cmd/generate-assets.</desc>
  <defs>
    <linearGradient id="border-gradient" x1="0" y1="0" x2="1" y2="1">
      <stop offset="0" stop-color="#7fb4ca"/>
      <stop offset="0.5" stop-color="#8cb89b"/>
      <stop offset="1" stop-color="#98bb6c"/>
    </linearGradient>
  </defs>
  <rect width="100%" height="100%" fill="#14171d"/>
  <rect x="3" y="3" width="164" height="142" fill="none" stroke="url(#border-gradient)" stroke-width="2" opacity="0.9"/>
  <rect x="8" y="8" width="154" height="132" fill="none" stroke="url(#border-gradient)" stroke-width="1" opacity="0.45"/>
  <g transform="translate(12 12)">
    <rect x="8" y="8" width="10" height="18" fill="#7fb4ca"/>
    <rect x="18" y="8" width="10" height="18" fill="#81b4c2"/>
    <rect x="28" y="8" width="10" height="18" fill="#83b5ba"/>
    <rect x="38" y="8" width="10" height="18" fill="#85b5b2"/>
    <rect x="88" y="8" width="10" height="18" fill="#8fb88b"/>
    <rect x="98" y="8" width="10" height="18" fill="#91b983"/>
    <rect x="108" y="8" width="10" height="18" fill="#93b97b"/>
    <rect x="118" y="8" width="10" height="18" fill="#95ba73"/>
    <rect x="8" y="26" width="10" height="18" fill="#7fb4ca"/>
    <rect x="18" y="26" width="10" height="18" fill="#81b4c2"/>
    <rect x="28" y="26" width="10" height="18" fill="#83b5ba"/>
    <rect x="38" y="26" width="10" height="18" fill="#85b5b2"/>
    <rect x="48" y="26" width="10" height="18" fill="#87b6aa" opacity="0.42"/>
    <rect x="88" y="26" width="10" height="18" fill="#8fb88b"/>
    <rect x="98" y="26" width="10" height="18" fill="#91b983"/>
    <rect x="108" y="26" width="10" height="18" fill="#93b97b"/>
    <rect x="118" y="26" width="10" height="18" fill="#95ba73"/>
    <rect x="128" y="26" width="10" height="18" fill="#98bb6c" opacity="0.42"/>
    <rect x="8" y="44" width="10" height="18" fill="#7fb4ca"/>
    <rect x="18" y="44" width="10" height="18" fill="#81b4c2"/>
    <rect x="28" y="44" width="10" height="18" fill="#83b5ba"/>
    <rect x="38" y="44" width="10" height="18" fill="#85b5b2"/>
    <rect x="48" y="44" width="10" height="18" fill="#87b6aa" opacity="0.42"/>
    <rect x="88" y="44" width="10" height="18" fill="#8fb88b"/>
    <rect x="98" y="44" width="10" height="18" fill="#91b983"/>
    <rect x="108" y="44" width="10" height="18" fill="#93b97b"/>
    <rect x="118" y="44" width="10" height="18" fill="#95ba73"/>
    <rect x="128" y="44" width="10" height="18" fill="#98bb6c" opacity="0.42"/>
    <rect x="18" y="62" width="10" height="18" fill="#81b4c2" opacity="0.42"/>
    <rect x="28" y="62" width="10" height="18" fill="#83b5ba"/>
    <rect x="38" y="62" width="10" height="18" fill="#85b5b2"/>
    <rect x="48" y="62" width="10" height="18" fill="#87b6aa"/>
    <rect x="58" y="62" width="10" height="18" fill="#89b6a2"/>
    <rect x="68" y="62" width="10" height="18" fill="#8bb79b"/>
    <rect x="78" y="62" width="10" height="18" fill="#8db893"/>
    <rect x="88" y="62" width="10" height="18" fill="#8fb88b"/>
    <rect x="98" y="62" width="10" height="18" fill="#91b983"/>
    <rect x="108" y="62" width="10" height="18" fill="#93b97b" opacity="0.42"/>
    <rect x="118" y="62" width="10" height="18" fill="#95ba73" opacity="0.42"/>
    <rect x="128" y="62" width="10" height="18" fill="#98bb6c" opacity="0.42"/>
    <rect x="38" y="80" width="10" height="18" fill="#85b5b2" opacity="0.42"/>
    <rect x="48" y="80" width="10" height="18" fill="#87b6aa"/>
    <rect x="58" y="80" width="10" height="18" fill="#89b6a2"/>
    <rect x="68" y="80" width="10" height="18" fill="#8bb79b"/>
    <rect x="78" y="80" width="10" height="18" fill="#8db893"/>
    <rect x="88" y="80" width="10" height="18" fill="#8fb88b" opacity="0.42"/>
    <rect x="98" y="80" width="10" height="18" fill="#91b983" opacity="0.42"/>
    <rect x="108" y="80" width="10" height="18" fill="#93b97b" opacity="0.42"/>
    <rect x="58" y="98" width="10" height="18" fill="#89b6a2" opacity="0.42"/>
    <rect x="68" y="98" width="10" height="18" fill="#8bb79b" opacity="0.42"/>
    <rect x="78" y="98" width="10" height="18" fill="#8db893" opacity="0.42"/>
    <rect x="88" y="98" width="10" height="18" fill="#8fb88b" opacity="0.42"/>
  </g>
</svg>
